<svg viewBox="0 -0.03606916281190087 279.94 114.3360691628119" xmlns="http://www.w3.org/2000/svg" width="2500" height="1021"><path d="M144.88 114.23c11.55 0 21.78-7.77 21.78-21s-10.23-21-21.78-21-21.78 7.77-21.78 21 10.23 21 21.78 21zm-74.51-.82h8.44L59.43 73.13h-8.07l-17.9 40.28h7.47l3.88-9.1h21.37zm209-40.28h-30.61v40.28h31.18V107h-24V96.44h20.45V90h-20.47V79.57h23.41zm-107.15 36.3c1.64 1.33 6.54 4.8 15.13 4.8s15.75-4.7 15.75-12.06c0-15.34-22.19-10.43-22.19-18.82 0-2.35 1.94-4.29 7.06-4.29a18.5 18.5 0 0 1 11.65 4l3-5.93c-1.84-1.74-7.47-4.81-14.62-4.81-10.74 0-15.14 6-15.14 12 0 13.91 22.19 9.92 22.19 18.21 0 3.47-3.48 5-7.46 5a22.47 22.47 0 0 1-12.89-4.19zM102 79.47c6 0 9.41 3.27 11.35 5l5-4.91c-1.64-1.84-6.44-7.26-16.46-7.26-11.56 0-21.78 7.77-21.78 21s10.12 21 21.68 21a25.74 25.74 0 0 0 16.87-6.54l-4-5.62c-3.17 2.65-8.18 5-12.78 5a13.81 13.81 0 1 1 .1-27.61zm42.84 27.61a13.81 13.81 0 1 1 14-13.81 13.67 13.67 0 0 1-14 13.81zm76.28-27.51v33.84h7.15V79.57h14.11v-6.44h-35v6.44zm-214-6.44H0v40.28h28.56V107H7.16zm48 7.05l8.18 17.9H47.47z" fill="#1a171b"/><path d="M192.33 45.25a8.57 8.57 0 0 0-2.43-.86c-1.08-.32-1.42-1.64-1.82-1.79-.8-.31-1.55.91-2 .75s-.69-1.77-1.09-1.92c-.77-.28-1.61 1-2.1.79s-.75-1.75-1.15-1.9c-.81-.29-1.64 1-2.12.83s-.63-1.81-1-2c-.86-.33-1.65 1-2.41.86a6.72 6.72 0 0 1-2.94-1.19c-.4-.26-1.23-.93-1.3-1s-.5-.15-.41.57c.2 1.69 3.11 2.9 6.44 3.87a72.81 72.81 0 0 1 8.72 2.82c1.25.57 1.78 1.26 1.34 1.93-.35.51-1.21.55-2.14.11s-1.09-1.26-1.72-1.41-1.75 1.28-2.35 1.14c-.79-.19-.87-1.86-1.57-2-.91-.24-1.93 1.18-2.54 1s-.83-1.92-1.4-2.07c-1-.25-1.95 1.24-2.56 1.11s-.94-1.9-1.45-2.1c-1-.39-2.25 1.06-3.58.36-4.3-2.91-3.48-4.41-6.77-5.38-1.7-.5-3.82.1-5.06.24-2.91.3-2.8-2.22-2.8-2.22a5.87 5.87 0 0 0 4.21-.08c2.36-.87 3.67-1 6.74 0a7.13 7.13 0 0 0 5-.14 1.53 1.53 0 0 1 1.62.18c.84.53 1.65 1.12 2.06.92.63-.31.41-2 1.5-2.37.5-.17 1.87 1.2 2.47 1s.41-2 1.5-2.37c.5-.17 1.87 1.2 2.47 1s.41-2 1.5-2.37c.5-.17 1.87 1.2 2.47 1s.41-2 1.5-2.38c.5-.16 1.87 1.21 2.47 1 .59-.24.51-.69 1-1.9a1.67 1.67 0 0 1 .51-.67c.67-.55 1.68-1.72 1.08-3s-1.65-1.15-4.1-.64c-2.05.42-14.83 3.23-14.83 3.23-2-3.69-3.34-1.25-6.3-1.61-1.87-.23-4.9-2.14-9.69 2.29a8.38 8.38 0 0 0-6.55.87 42.2 42.2 0 0 0-18.78-4c-2.94 0-10 .58-21.16 3.53-2.87.75-5.48.59-6.12-1.11s1.64-3.64 6-5.72c10.74-5.14 17.91-3.93 32.34-11.57 7.74-4.1 8.24-8.9 8.24-10.06a.68.68 0 0 0-1.28-.41c-2.6 3.63-3.27 3.33-4.08 2.52-1.09-1.08-1.81.64-3 1.5-.88.66-1.06-.13-1.77-.59-1.23-.79-2.26 1.54-3.3 2-1.22.55-1.44-.06-1.85-.49a.85.85 0 0 0-1.2.06c-2.46 2.34-2.82 2.07-3.56 1.29-.54-.58-.84-1-2.43.63-.92.94-2.46 2-2.92.88s-.88-1.85-3.13.21c-1.34 1.22-2.25 1.32-2.66.75s-.34-2.17-2.46-.5c-1.89 1.49-2.84 2.39-3.47.94s-2-.22-3.06.79c-.55.53-1.47 1.79-2.22.51s-1.92 0-3.44 1.65c-.86.9-1.43.51-2.28-.09s-2 1.79-3.42 3.29c-.27.25-.65.43-1.5-.17-1.11-.76-2.85 3.12-3.35 4.06-.81 1.54-1.71-.4-2.65 1C90 23.84 87.62 27.42 87 33.77c-.8 7.6 2 13.78 4.87 16.06 0 0-.35.85-.75 1.92-.79 2.14-1.12 4.92-.1 6.86s3.32 5 4.18 2.06c.42-1.43.81-1.36 2.19-.38 2.09 1.47 1.58-1.21 2-2 .3-.55.66-.77 2.38.37 1 .64 1.31-.24 1.6-1.46.91-3.79-.88-4.72-2.65-5.07a8.6 8.6 0 0 0-2.64 0c2.82-4.29 3.17-6.63 0-8.81a1.36 1.36 0 0 1 1.26.06 3.86 3.86 0 0 1 1.8 1.62c.44.77 1.15 2.49-.3 5.54a4.3 4.3 0 0 1 4 2.54 56.7 56.7 0 0 0 14.21.53c1.42-.23 2.06-1.51 3.47-2.83s3.34-3 4.94-1.83c-2.73 1.12-4.65 3.24-4.65 5.93 0 2 .83 2.83 2.28 4s1.71 2.81 2.19 4.15c.61 1.7 1.89 1.76 2.18.14.39-2.24 1.07-1.82 1.93-.87 1.06 1.16 1.88 1 1.88-.68s.48-2.36 2.24-.54c.72.74 1.58.72 1.57-.9 0-2 .86-1.78 2-.93.38.29.65.5.85.49.87 0 1.44-1.73.77-3.07-.33-.67-.81-1.66-5.32-2.59-1.48-.31-1.22-1.33-1.22-1.33 11 .53 20.32-.85 26.45-4.58 7.54 1.82 18.56 2 22.18 2s6.38-.21 8.64-1.3 2-2.93.9-3.62zm-22.76-17.11a1.31 1.31 0 0 1 1.14-.93A1.36 1.36 0 0 1 172 28.4l-2 .45c-.65.15-.64-.19-.43-.71zm-5.22-.14a2.7 2.7 0 0 1 2.43 1.57l-3 .66c-.6.13-1-.13-1.05-.6a1.64 1.64 0 0 1 1.62-1.63zM106 15.07a12.12 12.12 0 0 1 3-1c.21 0 .34.07.3.24-.17.69-.34 1.4-.48 2.12a.26.26 0 0 1-.38.18c-.78-.39-1.6-.79-2.49-1.21-.1-.09-.11-.24.05-.33zm-4.61 2.17a11.92 11.92 0 0 1 3-1c.21 0 .34.08.3.24-.17.69-.33 1.4-.48 2.12a.25.25 0 0 1-.37.18l-2.49-1.21c-.12-.08-.13-.24.07-.33zm2 4.78c.21 0 .35.08.3.25-.17.69-.33 1.39-.49 2.12a.24.24 0 0 1-.36.17l-2.49-1.2c-.19-.09-.2-.25 0-.34A12.53 12.53 0 0 1 103.4 22zm-1.93 4c-.18.69-.34 1.4-.49 2.12a.24.24 0 0 1-.37.18l-2.49-1.21c-.19-.08-.19-.24 0-.33a12 12 0 0 1 3-1c.26-.02.4.09.36.22zm-4.19-6a12 12 0 0 1 3-1c.21 0 .34.07.3.24-.17.69-.33 1.39-.48 2.12a.26.26 0 0 1-.38.18l-2.48-1.21c-.14-.09-.14-.24.05-.35zm-3.16 3.63a12.3 12.3 0 0 1 3-1c.21 0 .35.07.31.24-.18.69-.34 1.4-.49 2.12a.24.24 0 0 1-.37.17c-.78-.38-1.61-.79-2.49-1.2-.14-.08-.14-.24.05-.33zm-1.2 4.19a12.12 12.12 0 0 1 3-1c.21 0 .35.07.3.24-.17.69-.33 1.4-.48 2.12a.25.25 0 0 1-.37.18c-.79-.39-1.61-.79-2.5-1.21-.12-.09-.13-.24.06-.33zm.54 4.55c-.19-.09-.19-.24 0-.33a11.54 11.54 0 0 1 3-1c.21 0 .35.07.31.24-.18.69-.34 1.39-.49 2.12a.24.24 0 0 1-.37.17zm5.41 5.1a.25.25 0 0 1-.37.17L96 36.45c-.19-.08-.2-.24 0-.33a11.71 11.71 0 0 1 3-1c.21-.05.35.07.31.23-.13.71-.31 1.42-.44 2.14zm-.26-6.24c-.19-.08-.19-.24 0-.33a12 12 0 0 1 3-1c.21 0 .35.08.31.24-.17.69-.34 1.4-.49 2.13a.25.25 0 0 1-.37.17c-.73-.38-1.55-.79-2.44-1.21zm4.79 8.57a.25.25 0 0 1-.39.18c-.78-.38-1.61-.79-2.49-1.2-.19-.1-.2-.25 0-.34a12.53 12.53 0 0 1 3-1c.21 0 .35.08.3.24-.1.69-.26 1.4-.41 2.12zm1-4.44a.25.25 0 0 1-.37.18c-.79-.39-1.61-.79-2.5-1.21-.19-.09-.19-.24 0-.33a12 12 0 0 1 3-1c.2 0 .34.07.3.24-.11.74-.27 1.4-.42 2.12zm4.5 2.19c-.18.69-.34 1.39-.49 2.12a.25.25 0 0 1-.37.17c-.78-.38-1.6-.79-2.48-1.2-.19-.09-.2-.25 0-.34a12.46 12.46 0 0 1 3-1c.26-.04.39.08.35.25zm.21-2.38c-.79-.38-1.61-.79-2.5-1.2-.18-.09-.19-.25 0-.34a12.46 12.46 0 0 1 3-1c.22 0 .35.08.31.25-.18.69-.33 1.39-.49 2.12a.23.23 0 0 1-.31.17zm3.9 5.69c-.17.69-.33 1.39-.48 2.12a.25.25 0 0 1-.37.17L109.69 42c-.19-.08-.2-.23 0-.33a12 12 0 0 1 3-1c.24-.07.39.04.31.21zm1-4.58c-.17.69-.33 1.4-.49 2.12a.24.24 0 0 1-.37.17c-.78-.38-1.61-.79-2.49-1.2-.19-.09-.19-.24 0-.34a12.44 12.44 0 0 1 3-1c.28-.05.42.08.35.25zm.61-2.72a.24.24 0 0 1-.37.17l-2.49-1.2c-.19-.09-.2-.25 0-.33a11.92 11.92 0 0 1 3-1c.21 0 .35.07.31.24-.06.69-.27 1.4-.42 2.12zm3.12 7.89a.25.25 0 0 1-.37.18c-.78-.39-1.6-.79-2.49-1.21-.19-.08-.19-.24 0-.33a12 12 0 0 1 3-1c.21 0 .35.07.31.24-.11.65-.26 1.4-.42 2.12zm1-4.44a.24.24 0 0 1-.36.18c-.78-.39-1.62-.79-2.49-1.21-.19-.09-.2-.24 0-.33a11.73 11.73 0 0 1 3-1c.2 0 .34.07.3.25-.11.68-.27 1.39-.43 2.08zm.69-4.47l-2.42-1.2c-.19-.09-.2-.24 0-.34a11.9 11.9 0 0 1 3-1c.21 0 .35.07.31.24-.17.69-.34 1.4-.49 2.12a.24.24 0 0 1-.38.18zm4.13 5.68c-.18.68-.34 1.39-.49 2.12a.24.24 0 0 1-.36.17c-.79-.38-1.61-.79-2.5-1.21-.19-.09-.19-.24 0-.33a12 12 0 0 1 3.05-1c.22.01.36.08.32.25zm1-4.44c-.17.68-.33 1.39-.48 2.12a.24.24 0 0 1-.37.17l-2.49-1.2c-.19-.09-.2-.24 0-.34a12.1 12.1 0 0 1 3-1c.23-.03.36.09.32.25zm.15-2.11c-.79-.38-1.61-.79-2.5-1.21-.18-.09-.19-.24 0-.33a12.12 12.12 0 0 1 3-1c.21 0 .34.07.3.24-.17.69-.33 1.4-.48 2.12a.25.25 0 0 1-.34.18zm4 6c-.17.69-.33 1.39-.48 2.12a.24.24 0 0 1-.37.17l-2.49-1.2c-.19-.09-.2-.24 0-.33a11.73 11.73 0 0 1 3-1c.27-.03.4.08.36.25zm1-4.4c-.17.69-.33 1.39-.48 2.12a.25.25 0 0 1-.37.17c-.78-.38-1.61-.79-2.49-1.2-.19-.09-.19-.25 0-.34a12.12 12.12 0 0 1 3-1c.23-.04.37.09.32.26zm.5-2.21a.24.24 0 0 1-.36.18c-.79-.39-1.61-.79-2.5-1.21-.19-.09-.19-.24 0-.34a12.1 12.1 0 0 1 3.05-1c.21 0 .34.07.3.24-.19.71-.35 1.41-.51 2.14zm3.65 6.81c-.18.69-.34 1.4-.49 2.12a.25.25 0 0 1-.37.18c-.78-.39-1.6-.79-2.49-1.21-.19-.09-.19-.25 0-.34a12 12 0 0 1 3-1c.23-.03.37.09.33.26zm1-4.46c-.17.69-.33 1.39-.48 2.12a.25.25 0 0 1-.37.18c-.78-.39-1.61-.8-2.49-1.21-.19-.09-.19-.25 0-.34a12.53 12.53 0 0 1 3-1c.21-.03.34.09.3.26zm1-4.36c-.17.68-.34 1.39-.49 2.12a.25.25 0 0 1-.37.17c-.78-.38-1.6-.79-2.48-1.2-.2-.09-.2-.25 0-.34a12 12 0 0 1 3-1c.2-.02.34.09.3.26zm3.47 7.42a.24.24 0 0 1-.37.17l-2.49-1.2c-.19-.09-.19-.25 0-.34a12.46 12.46 0 0 1 3-1c.21 0 .35.08.31.25-.18.7-.33 1.41-.49 2.13zm1.48-6.61c-.17.69-.33 1.4-.48 2.12a.24.24 0 0 1-.37.17c-.78-.38-1.61-.79-2.49-1.2-.19-.09-.2-.25 0-.34a11.9 11.9 0 0 1 3-1c.21-.02.35.09.3.26zm4.72 1.64c-.17.69-.33 1.4-.48 2.12a.25.25 0 0 1-.37.18c-.78-.39-1.61-.79-2.49-1.21-.19-.09-.2-.24 0-.33a12.12 12.12 0 0 1 3.05-1c.16-.03.29.08.25.25z" fill="#03542a"/><path d="M165 35.8c-3.07-1-4.38-.87-6.74 0a5.87 5.87 0 0 1-4.21.08s-.11 2.52 2.8 2.22c1.24-.14 3.36-.74 5.06-.24 3.29 1 2.47 2.47 6.77 5.38 1.33.7 2.62-.75 3.58-.36.51.2.85 2 1.45 2.1s1.59-1.36 2.56-1.11c.57.15.8 1.94 1.4 2.07s1.63-1.29 2.54-1c.7.19.78 1.86 1.57 2 .6.14 1.58-1.32 2.35-1.14s.73.93 1.72 1.41 1.79.4 2.14-.11c.44-.67-.09-1.36-1.34-1.93a72.81 72.81 0 0 0-8.72-2.82c-3.33-1-6.24-2.18-6.44-3.87-.09-.71.26-.63.41-.58-1.29-.95-1.55-1.85-1.49-2.34l-.37.1a7.13 7.13 0 0 1-5.04.14z" fill="#e30043"/></svg>