<?xml version="1.0" standalone="no"?>
<!DOCTYPE svg PUBLIC "-//W3C//DTD SVG 20010904//EN"
 "http://www.w3.org/TR/2001/REC-SVG-20010904/DTD/svg10.dtd">
<svg version="1.0" xmlns="http://www.w3.org/2000/svg"
 width="186.000000pt" height="212.000000pt" viewBox="0 0 186.000000 212.000000"
 preserveAspectRatio="xMidYMid meet">

<g transform="translate(0.000000,212.000000) scale(0.100000,-0.100000)"
fill="#000000" stroke="none">
<path d="M877 1736 c-94 -35 -147 -110 -147 -210 0 -37 7 -70 20 -97 38 -73
143 -128 219 -114 153 29 230 180 161 315 -46 90 -163 139 -253 106z"/>
<path d="M454 1546 c-30 -21 -120 -155 -154 -228 -133 -288 -31 -654 235 -844
347 -247 807 -141 1020 235 51 91 76 181 82 297 10 180 -41 333 -161 482 l-59
74 -60 -61 -61 -60 46 -49 c88 -94 128 -205 128 -355 0 -153 -46 -265 -154
-373 -77 -77 -132 -109 -231 -134 -138 -35 -281 -20 -398 42 -69 37 -186 157
-222 228 -59 116 -72 272 -34 396 25 83 47 121 110 195 l48 56 -57 56 c-54 53
-59 56 -78 43z"/>
<path d="M618 1320 c-148 -172 -137 -423 26 -585 52 -53 142 -102 202 -112
l34 -6 0 265 0 264 -101 107 c-55 59 -107 107 -114 107 -7 0 -29 -18 -47 -40z"/>
<path d="M1112 1257 l-102 -102 0 -269 0 -268 32 6 c60 12 138 55 192 106 133
126 173 324 98 484 -27 57 -94 146 -111 146 -3 0 -52 -46 -109 -103z"/>
</g>
</svg>
